#!OML:ASF H:\Not Pregnant\Project 1\Capture day 1\Session 1\non-pregnant.ASF
:FULLY-SPECIFIED
:DEGREES
959
root 13.8825 15.9648 13.1737 10.5589 -25.2362 1.78413
lowerback -2.2971 4.34867 -3.93502
upperback 1.45686 6.06236 -5.81122
thorax 3.02211 2.99681 -3.51132
lowerneck 12.4055 -6.26945 -33.7476
upperneck 15.3414 -15.0189 25.9054
head 7.23571 -8.87435 14.373
rclavicle 3.53837e-014 -4.45278e-014
rhumerus -13.58 3.07534 -90.7149
rradius 30.6387
rwrist 14.6736
rhand -20.2336 -7.00317
rfingers 7.12502
rthumb 6.11428 -36.8949
lclavicle 3.53837e-014 -4.45278e-014
lhumerus -23.7894 -14.1583 77.6841
lradius 29.5225
lwrist 35.7397
lhand -20.2861 -11.3308
lfingers 7.12502
lthumb 6.06361 18.5624
rfemur -42.0524 -6.56562 26.881
rtibia 18.3329
rfoot -6.33493 9.20882
rtoes -30.0321
lfemur -15.6143 -0.62971 -26.4568
ltibia 28.3179
lfoot -22.4835 -5.48102
ltoes -23.6054
960
root 13.8486 15.963 13.2812 10.6976 -24.9 1.96699
lowerback -2.4978 4.38378 -3.92239
upperback 1.41409 6.12213 -5.77273
thorax 3.08978 3.02611 -3.4607
lowerneck 12.552 -6.29514 -33.7534
upperneck 15.3102 -15.0804 25.8278
head 7.21668 -8.9116 14.3344
rclavicle -2.38542e-015 3.18055e-015
rhumerus -13.5401 3.3699 -90.8123
rradius 30.9586
rwrist 14.3016
rhand -19.9609 -6.82351
rfingers 7.12502
rthumb 6.37753 -36.7075
lclavicle -2.38542e-015 3.18055e-015
lhumerus -24.337 -14.1791 78.0299
lradius 29.8073
lwrist 36.153
lhand -20.3198 -11.5606
lfingers 7.12502
lthumb 6.03109 18.3335
rfemur -42.4023 -7.16401 27.3444
rtibia 17.268
rfoot -5.55916 9.56234
rtoes -30.0758
lfemur -15.1331 -0.658654 -26.653
ltibia 27.7596
lfoot -22.5368 -5.89406
ltoes -23.362
961
root 13.8138 15.9599 13.3904 10.8465 -24.574 2.14365
lowerback -2.71652 4.42209 -3.90765
upperback 1.36535 6.18682 -5.73028
thorax 3.16125 3.05777 -3.40539
lowerneck 12.71 -6.32418 -33.7455
upperneck 15.2624 -15.1474 25.7536
head 7.19116 -8.95086 14.2941
rclavicle 2.14687e-014 -5.725e-014
rhumerus -13.5167 3.69305 -90.9288
rradius 31.2407
rwrist 13.844
rhand -19.7033 -6.63841
rfingers 7.12502
rthumb 6.62629 -36.5147
lclavicle 2.14687e-014 -5.725e-014
lhumerus -24.9158 -14.1825 78.3987
lradius 30.1097
lwrist 36.598
lhand -20.3685 -11.8417
lfingers 7.12502
lthumb 5.98401 18.0538
rfemur -42.8412 -7.89886 27.9342
rtibia 16.4244
rfoot -4.91392 9.90246
rtoes -30.1286
lfemur -14.6533 -0.682637 -26.8398
ltibia 27.2091
lfoot -22.5887 -6.30137
ltoes -23.1428
962
root 13.7783 15.9568 13.5009 11.0087 -24.2577 2.30239
lowerback -2.94783 4.46343 -3.8795
upperback 1.30702 6.25501 -5.68067
thorax 3.23045 3.09139 -3.34884
lowerneck 12.8814 -6.35288 -33.7363
upperneck 15.2026 -15.2186 25.6905
head 7.16158 -8.99264 14.2584
rclavicle -7.95139e-016 -3.81667e-014
rhumerus -13.5214 4.03294 -91.0627
rradius 31.4808
rwrist 13.3613
rhand -19.4607 -6.44374
rfingers 7.12502
rthumb 6.86048 -36.3126
lclavicle -7.95139e-016 -3.81667e-014
lhumerus -25.5304 -14.1543 78.785
lradius 30.4296
lwrist 37.0528
lhand -20.4161 -12.1222
lfingers 7.12502
lthumb 5.93811 17.7746
rfemur -43.2564 -8.73208 28.6571
rtibia 15.7929
rfoot -4.63597 10.1545
rtoes -30.7965
lfemur -14.1793 -0.701209 -27.0058
ltibia 26.6755
lfoot -22.6416 -6.70818
ltoes -22.9337
963
root 13.7421 15.9522 13.6131 11.1799 -23.9566 2.45177
lowerback -3.18762 4.51085 -3.84572
upperback 1.23768 6.33058 -5.62736
thorax 3.29329 3.1288 -3.29053
lowerneck 13.0767 -6.37973 -33.7265
upperneck 15.1245 -15.2944 25.6397
head 7.12454 -9.03773 14.2285
rclavicle 4.53229e-014 3.65764e-014
rhumerus -13.5513 4.375 -91.2113
rradius 31.6718
rwrist 12.9
rhand -19.2248 -6.24812
rfingers 7.12502
rthumb 7.08814 -36.1094
lclavicle 4.53229e-014 3.65764e-014
lhumerus -26.1729 -14.0778 79.1794
lradius 30.7576
lwrist 37.4977
lhand -20.4319 -12.3725
lfingers 7.12502
lthumb 5.9228 17.5248
rfemur -43.7381 -9.82117 29.6155
rtibia 15.3532
rfoot -4.54112 10.6072
rtoes -31.518
lfemur -13.7166 -0.717979 -27.1598
ltibia 26.1682
lfoot -22.6968 -7.11418
ltoes -22.7135
964
root 13.7051 15.9463 13.7266 11.3605 -23.6733 2.5859
lowerback -3.43788 4.56409 -3.79887
upperback 1.16467 6.41348 -5.57054
thorax 3.35935 3.17005 -3.23416
lowerneck 13.2783 -6.41041 -33.7181
upperneck 15.0293 -15.3778 25.6033
head 7.08492 -9.08656 14.2041
rclavicle -2.78299e-015 4.77083e-015
rhumerus -13.5933 4.71413 -91.3744
rradius 31.8129
rwrist 12.5042
rhand -18.9823 -6.06041
rfingers 7.12502
rthumb 7.32224 -35.9137
lclavicle -2.78299e-015 4.77083e-015
lhumerus -26.8322 -13.9278 79.5675
lradius 31.0917
lwrist 37.8915
lhand -20.3986 -12.5538
lfingers 7.12502
lthumb 5.95499 17.3425
rfemur -44.1458 -10.189 30.0961
rtibia 15.0738
rfoot -4.53711 10.1313
rtoes -32.256
lfemur -13.2675 -0.738763 -27.2962
ltibia 25.6937
lfoot -22.7557 -7.5031
ltoes -22.4947
965
root 13.6676 15.939 13.8413 11.5453 -23.4049 2.71216
lowerback -3.68478 4.62152 -3.7461
upperback 1.08241 6.50031 -5.51153
thorax 3.41432 3.21345 -3.17875
lowerneck 13.4976 -6.44 -33.7136
upperneck 14.913 -15.4655 25.5808
head 7.03847 -9.13821 14.1865
rclavicle -4.1546e-014 1.11319e-014
rhumerus -13.6579 5.0429 -91.5526
rradius 31.9116
rwrist 12.1927
rhand -18.7239 -5.89375
rfingers 7.12502
rthumb 7.57167 -35.7382
lclavicle -4.1546e-014 1.11319e-014
lhumerus -27.5229 -13.707 79.9508
lradius 31.4315
lwrist 38.2401
lhand -20.331 -12.7019
lfingers 7.12502
lthumb 6.02022 17.1925
rfemur -44.5358 -10.5417 30.5798
rtibia 14.9152
rfoot -4.58489 9.64778
rtoes -33.0033
lfemur -12.8375 -0.772395 -27.4213
ltibia 25.2626
lfoot -22.8084 -7.89898
ltoes -22.1866
966
root 13.6295 15.93 13.9572 11.7294 -23.1496 2.8357
lowerback -3.92586 4.68085 -3.68979
upperback 0.993394 6.5881 -5.45141
thorax 3.45918 3.25748 -3.12442
lowerneck 13.7214 -6.4722 -33.7122
upperneck 14.7854 -15.5579 25.5627
head 6.99004 -9.19239 14.1707
rclavicle -3.49861e-014 -4.29375e-014
rhumerus -13.7445 5.37794 -91.7474
rradius 31.974
rwrist 11.9587
rhand -18.4434 -5.76976
rfingers 7.12502
rthumb 7.84236 -35.6043
lclavicle -3.49861e-014 -4.29375e-014
lhumerus -28.2364 -13.4006 80.3174
lradius 31.7642
lwrist 38.535
lhand -20.2141 -12.8363
lfingers 7.12502
lthumb 6.13307 17.0549
rfemur -44.8859 -10.8866 31.0554
rtibia 14.8384
rfoot -4.62204 9.22885
rtoes -33.7567
lfemur -12.4231 -0.819692 -27.5416
ltibia 24.8771
lfoot -22.8658 -8.25861
ltoes -21.9168
967
root 13.5912 15.9195 14.0742 11.9077 -22.9021 2.95899
lowerback -4.15804 4.73714 -3.63007
upperback 0.901552 6.67028 -5.38886
thorax 3.4959 3.29881 -3.07034
lowerneck 13.9479 -6.50516 -33.7117
upperneck 14.6363 -15.6494 25.5438
head 6.93401 -9.24554 14.1539
rclavicle 7.79236e-014 -5.56597e-014
rhumerus -13.8455 5.73024 -91.96
rradius 32.0008
rwrist 11.7859
rhand -18.1427 -5.69258
rfingers 7.12502
rthumb 8.13258 -35.5161
lclavicle 7.79236e-014 -5.56597e-014
lhumerus -28.9731 -13.0333 80.675
lradius 32.091
lwrist 38.799
lhand -20.093 -12.9664
lfingers 7.12502
lthumb 6.25005 16.9214
rfemur -45.1779 -11.2349 31.5142
rtibia 14.8148
rfoot -4.60897 8.93617
rtoes -34.4794
lfemur -12.0187 -0.884344 -27.6601
ltibia 24.5368
lfoot -22.9254 -8.59548
ltoes -21.6712
968
root 13.5524 15.9072 14.192 12.0799 -22.6686 3.07863
lowerback -4.37228 4.79023 -3.5707
upperback 0.805431 6.74594 -5.32029
thorax 3.51696 3.33696 -3.01171
lowerneck 14.1661 -6.53892 -33.7137
upperneck 14.4728 -15.7367 25.5173
head 6.87306 -9.29562 14.1334
rclavicle -1.03567e-013 5.56597e-014
rhumerus -13.9676 6.11571 -92.1917
rradius 32.0043
rwrist 11.6417
rhand -17.8197 -5.6681
rfingers 7.12502
rthumb 8.44435 -35.4793
lclavicle -1.03567e-013 5.56597e-014
lhumerus -29.7287 -12.61 81.0255
lradius 32.4001
lwrist 39.0387
lhand -19.9788 -13.097
lfingers 7.12502
lthumb 6.36033 16.7875
rfemur -45.4054 -11.5907 31.9642
rtibia 14.83
rfoot -4.52729 8.82366
rtoes -35.0488
lfemur -11.6226 -0.956446 -27.7745
ltibia 24.2394
lfoot -22.9895 -8.89372
ltoes -21.5208
969
root 13.5133 15.893 14.3106 12.243 -22.4453 3.1945
lowerback -4.56592 4.83817 -3.50921
upperback 0.708501 6.81248 -5.24585
thorax 3.52472 3.37068 -2.95048
lowerneck 14.3708 -6.57455 -33.7149
upperneck 14.2928 -15.8184 25.4789
head 6.80618 -9.34119 14.1065
rclavicle 4.79071e-014 -7.95139e-014
rhumerus -14.1042 6.5244 -92.4465
rradius 31.9914
rwrist 11.506
rhand -17.471 -5.71202
rfingers 7.12502
rthumb 8.78089 -35.5094
lclavicle 4.79071e-014 -7.95139e-014
lhumerus -30.4934 -12.1531 81.3685
lradius 32.6871
lwrist 39.2709
lhand -19.8758 -13.2336
lfingers 7.12502
lthumb 6.4597 16.6479
rfemur -45.561 -11.9426 32.3919
rtibia 14.8788
rfoot -4.38025 8.88382
rtoes -35.3697
lfemur -11.2302 -1.03284 -27.8853
ltibia 23.9825
lfoot -23.056 -9.1528
ltoes -21.4879
970
root 13.474 15.877 14.4301 12.3957 -22.229 3.30551
lowerback -4.74123 4.88205 -3.43877
upperback 0.611983 6.87133 -5.16619
thorax 3.52264 3.40081 -2.89076
lowerneck 14.5626 -6.60623 -33.7402
upperneck 14.1084 -15.8951 25.4512
head 6.74178 -9.38474 14.0888
rclavicle 4.49253e-014 -7.95139e-016
rhumerus -14.2567 6.96011 -92.7238
rradius 31.9656
rwrist 11.3561
rhand -17.1077 -5.81469
rfingers 7.12502
rthumb 9.13138 -35.597
lclavicle 4.49253e-014 -7.95139e-016
lhumerus -31.2666 -11.6883 81.7106
lradius 32.9501
lwrist 39.5061
lhand -19.7991 -13.3611
lfingers 7.12502
lthumb 6.53379 16.5182
rfemur -45.646 -12.3005 32.8043
rtibia 14.965
rfoot -4.18867 9.11154
rtoes -35.396
lfemur -10.8383 -1.10339 -27.9921
ltibia 23.7655
lfoot -23.1267 -9.37891
ltoes -21.5878
971
root 13.4346 15.8591 14.5507 12.5332 -22.0125 3.42047
lowerback -4.90031 4.9203 -3.36209
upperback 0.522312 6.92126 -5.08463
thorax 3.51873 3.42663 -2.8342
lowerneck 14.7318 -6.64365 -33.759
upperneck 13.9079 -15.9671 25.4068
head 6.67259 -9.42322 14.0608
rclavicle -1.05356e-014 3.57812e-014
rhumerus -14.415 7.41085 -93.0221
rradius 31.9343
rwrist 11.1804
rhand -16.7252 -5.97598
rfingers 7.12502
rthumb 9.50053 -35.7418
lclavicle -1.05356e-014 3.57812e-014
lhumerus -32.0358 -11.2318 82.0522
lradius 33.1882
lwrist 39.7536
lhand -19.7472 -13.4562
lfingers 7.12502
lthumb 6.58385 16.4215
rfemur -45.6706 -12.6739 33.1962
rtibia 15.107
rfoot -3.9833 9.4829
rtoes -35.1668
lfemur -10.4437 -1.16376 -28.1035
ltibia 23.5848
lfoot -23.1978 -9.5914
ltoes -21.7842
